<svg width="178" height="1088" viewBox="0 0 178 1088" fill="none" xmlns="http://www.w3.org/2000/svg">
<path d="M93.8274 914.258C93.8274 914.258 -14.3454 885.918 51.5773 681.31C117.5 476.701 152.596 373.167 152.596 373.167L160.617 913.266L93.8274 914.258Z" fill="white" fill-opacity="0.65"/>
<path d="M63.6866 1.32513C63.6866 1.32513 7.9107 63.4417 10.29 223.699C12.6693 383.956 160.506 513.765 160.506 513.765L152.876 0.00055826L63.6866 1.32513Z" fill="white" fill-opacity="0.65"/>
<path d="M90.7339 150.322C129.412 309.267 31.1832 339.293 40.3681 472.886C49.5531 606.478 161.44 714.713 161.44 714.713L145.849 0.638807C145.849 0.638807 52.0555 -8.62256 90.7339 150.322Z" fill="white" fill-opacity="0.65"/>
<path d="M90.7339 269.905C129.412 428.85 31.1832 458.876 40.3681 592.469C49.5531 726.061 161.44 834.296 161.44 834.296L145.849 120.222C145.849 120.222 52.0555 110.96 90.7339 269.905Z" fill="white" fill-opacity="0.65"/>
<path d="M90.5772 1.3119C90.5772 1.3119 -9.31414 31.8412 57.8251 228.354C124.964 424.867 160.555 524.255 160.555 524.255L152.775 0.38818L90.5772 1.3119Z" fill="white" fill-opacity="0.65"/>
<path d="M91.5155 951.714C129.96 808.516 31.6889 781.31 40.6779 660.919C49.6668 540.528 161.392 443.141 161.392 443.141L146.849 1086.7C146.849 1086.7 53.0709 1094.91 91.5155 951.714Z" fill="white" fill-opacity="0.65"/>
<path d="M86.6026 1086.1C86.6026 1086.1 -23.8834 1061.88 49.3224 909.409C122.528 756.938 161.358 679.832 161.358 679.832L155.31 1087.12L86.6026 1086.1Z" fill="white" fill-opacity="0.65"/>
<path d="M86.6026 1086.1C86.6026 1086.1 -23.8834 1061.88 49.3224 909.409C122.528 756.938 161.358 679.832 161.358 679.832L155.31 1087.12L86.6026 1086.1Z" fill="white" fill-opacity="0.65"/>
<path d="M86.6026 1086.1C86.6026 1086.1 -23.8834 1061.88 49.3224 909.409C122.528 756.938 161.358 679.832 161.358 679.832L155.31 1087.12L86.6026 1086.1Z" fill="white" fill-opacity="0.65"/>
<path d="M123.811 1085.17C124.474 1049.26 29.5922 1005.42 15.6629 931.111C1.73365 856.8 103.732 788.747 118.958 718.679C133.414 652.155 130.378 652.38 130.39 646.218C130.39 646.218 123.148 1121.08 123.811 1085.17Z" fill="white" fill-opacity="0.65"/>
<path d="M140.811 1085.17C141.474 1049.26 46.5922 1005.43 32.6629 931.117C18.7337 856.805 120.732 788.753 135.958 718.685C150.414 652.161 147.378 652.386 147.39 646.223C147.39 646.223 140.148 1121.09 140.811 1085.17Z" fill="white" fill-opacity="0.65"/>
<rect x="132" width="29" height="1087" fill="white"/>
</svg>
